<svg xmlns="http://www.w3.org/2000/svg" viewBox="0 0 466 242" fill-rule="evenodd" clip-rule="evenodd" stroke-linejoin="round" stroke-miterlimit="2"><path d="M365.09,0.72L371.62,1.99C386.26,6.1 396.34,19.71 396.53,34.88L396.53,207.05C396.31,222.21 386.31,235.86 371.62,239.94L365.09,241.21C254.31,241.27 143.52,241.16 32.73,241.22C15.47,240.21 1.67,226.37 0.48,209.2L0.48,33.2C1.41,15.8 15.17,1.94 32.51,0.72C143.37,0.76 254.24,0.66 365.1,0.72L365.09,0.72ZM57.57,60.18L57.57,42.32C57.57,40.88 55.94,37.9 54.94,36.8C49.93,31.31 40.83,34.7 39.61,41.63L39.58,120.01C40.26,124.88 43.68,127.92 48.57,128.28C69.1,126.81 92.24,134.12 106.98,115.68C124.3,94.01 110.09,62.76 83.12,60.18L57.57,60.18ZM154.43,60.01C119.3,61.98 108.63,107.96 139.45,124.48C152.14,131.28 168.5,127.13 182.44,128.28C186.8,127.91 190.13,124.81 190.7,120.48L190.7,67.73C190.25,63.28 186.08,60.51 181.92,59.98C172.84,60.23 163.48,59.51 154.43,60.02L154.43,60.01ZM231.48,108.37C231.5,108.66 231.64,108.89 231.83,109.09C236.23,113.71 240.46,118.55 244.91,123.12C246.97,125.24 248.86,127.42 251.86,128.16C258.78,129.86 264.93,123.32 263.27,116.52C262.55,113.57 260.19,111.5 258.23,109.33C253.62,104.22 248.52,99.5 244.21,94.14C250.13,87.6 256.5,81.42 262.14,74.64C267.72,65.02 255.49,55.25 247.3,62.93C242.74,67.2 238.42,72.88 234,77.45C233.62,77.84 231.48,80.12 231.15,80.07L214.28,62.39C203.75,55.3 193.85,67.4 202.08,76.98C206.78,82.44 212.3,87.31 216.96,92.8C217.18,93.05 218.05,94.13 218.02,94.33L203.04,110.3C196.88,115.63 197.22,125.92 206.03,127.93C210.86,129.04 213.18,127.28 216.36,124.09C220.34,120.1 223.95,115.67 227.86,111.61C228.6,110.85 230.1,109.13 230.86,108.61C231.06,108.47 231.11,108.28 231.46,108.38L231.48,108.37ZM300.51,60.48C296.68,61 293.5,64.17 292.92,68L292.89,120.25C294.01,130.2 308.12,131.08 310.78,121.57C311.37,103.51 311.37,85.19 310.78,67.13C309.54,62.56 305.23,59.84 300.52,60.49L300.51,60.48ZM347.04,70.31C343.38,70.81 340.33,74.02 339.68,77.58L339.65,120.25C340.55,130.71 357.03,131.51 357.9,119.05C358.77,106.59 357.2,92.24 357.9,79.23C357.56,73.38 352.9,69.51 347.04,70.31ZM323.3,84.7C320.11,85.16 317.1,88.15 316.47,91.3C316.44,100.31 315.45,110.57 316.15,119.53C317,130.48 332.13,131.36 334.28,120.85C333.82,111.79 335.27,101.34 334.39,92.43C333.83,86.77 328.64,83.93 323.3,84.7ZM277.97,104.6C269.54,105.19 269,113.64 269.61,120.25C270.52,130.1 285.53,131.2 287.58,120.93C289,113.82 287.11,103.96 277.97,104.6ZM59.68,136.98C47.15,137.43 36.77,147.2 35.97,159.8C35.21,171.74 36.57,184.48 35.97,196.5C37.87,207.52 53.1,207.07 54.46,196.02L54.51,160.35C56.34,152.79 66.63,153.61 67.37,161.52C68.43,172.88 66.41,185.84 67.39,197.22C68.23,206.99 84.57,207.4 85.63,196.73C86.24,185.22 84.83,172.9 85.63,161.48C86.22,152.9 97.7,153.89 98.57,160.55C99.29,172.15 97.68,184.78 98.58,196.26C99.48,207.74 115.82,207.48 117.06,196.49C116.57,184.74 117.73,172.44 117.07,160.76C116.07,143.05 97.79,131.73 81.47,139.11C79.64,139.94 78.05,141.1 76.39,142.21C75.77,142.27 73.95,140.73 73.24,140.33C68.99,137.96 64.59,136.82 59.68,137L59.68,136.98ZM131.88,136.97C127.54,137.51 123.89,142.05 123.77,146.36C124.57,164.43 119.77,181.77 134.09,195.76C151.6,212.88 181.37,205.96 189.92,183.23C194.19,171.89 191.26,157.85 192.15,145.88C190.83,134.26 174.41,134.16 173.43,146.13C172.72,154.83 174.12,164.52 173.43,173.23C172,191.42 143.63,190.99 142.23,172.03C141.6,163.46 142.98,153.9 142.25,145.4C141.81,140.34 136.94,136.33 131.87,136.96L131.88,136.97ZM226.63,136.97C218.41,137.15 211.94,136.51 205.33,142.29C191.21,154.63 198.39,179.36 217.44,180.54C225.64,181.05 234.36,180.12 242.62,180.55C246.64,181.09 245.8,187.17 241.68,187C229.98,187.76 217.01,186 205.45,187C195.44,187.86 193.49,204.6 206.41,205.48C218.71,206.32 232.17,205.02 244.56,205.23C271.13,202.12 268.87,163.64 244.56,161.84C236.19,161.22 227.15,162.34 218.71,161.78C215.22,161.15 214.77,155.35 219.86,154.89C231.07,153.88 243.94,155.92 255.13,154.89C264.82,154.01 265.48,138.7 255.57,136.92C245.93,136.95 236.28,136.75 226.64,136.96L226.63,136.97ZM323.31,136.98C307.5,138.27 293.8,152.9 293.12,168.67C292.28,188.26 306.79,204.25 326.34,205.25C333.79,205.63 344.67,205.8 352.03,205.25C359.39,204.7 364.17,196.16 359.09,190.02C357.49,188.09 355.27,186.77 352.74,186.54C344.02,185.76 334.16,187.23 325.39,186.54C306.58,185.07 307.71,156.77 325.63,155.35C334.11,154.68 343.53,156.01 352.03,155.37C363.63,154.5 364.57,139.04 353.19,136.92C343.45,137.38 332.96,136.18 323.3,136.97L323.31,136.98ZM278.68,137.45C274.07,137.55 269.55,141.39 269.37,146.12L269.41,197.41C271.02,208.27 286.72,207.99 287.63,196.97L287.59,145.92C286.92,141.44 283.5,137.34 278.69,137.45L278.68,137.45Z" fill="#c30067"/><path d="M365.09,241.2L371.62,239.93C386.31,235.86 396.31,222.2 396.53,207.04L396.53,34.87C396.34,19.7 386.26,6.09 371.62,1.98L365.09,0.71C392.24,0.72 419.39,0.71 446.54,0.7C456.46,1.38 464.55,9.4 465.37,19.28L465.37,222.38C464.55,232.32 456.69,240.25 446.77,241.19C419.55,241.21 392.32,241.18 365.1,241.19L365.09,241.2ZM437.05,69.77C438.63,69.82 440.47,69.65 441.94,69.02C447.01,66.85 447.14,57.24 442.93,54.18C440.57,52.47 434.17,52.45 431.61,53.66C428.42,55.17 428.18,59.35 426.59,62.07C425.72,63.55 423.74,63.68 422.17,63.19C420.41,62.64 420.57,59.82 422.84,59.28L424.58,58.86L424.58,53.23C413.29,51.59 412.05,68.55 423.02,69.53C425.25,69.73 428.47,69.42 430.1,67.75C431.91,65.89 432.89,60.34 434.47,59.41C435.42,58.85 437.87,58.82 438.92,59.14C441.61,59.97 440.47,64.39 437.44,63.57L437.04,63.89L437.04,69.76L437.05,69.77Z"/><path d="M57.56,60.18L83.11,60.18C110.09,62.76 124.3,94.01 106.97,115.68C92.23,134.13 69.09,126.81 48.56,128.28C43.66,127.91 40.24,124.88 39.57,120.01L39.6,41.63C40.82,34.7 49.93,31.31 54.93,36.8C55.93,37.9 57.56,40.88 57.56,42.32L57.56,60.18ZM57.57,110.05L81.92,110.05C86.51,110.05 92.38,105.39 94.4,101.42C99.19,92.01 92.89,78.64 81.68,78.64L57.57,78.64L57.57,110.05Z" fill="#fefdfe"/><path d="M59.68,136.98C64.59,136.8 68.99,137.94 73.24,140.31C73.96,140.71 75.78,142.25 76.39,142.19C78.06,141.09 79.64,139.92 81.47,139.09C97.79,131.71 116.07,143.03 117.07,160.74C117.73,172.42 116.56,184.72 117.06,196.47C115.83,207.46 99.46,207.4 98.58,196.24C97.7,185.08 99.29,172.13 98.57,160.53C97.7,153.87 86.22,152.88 85.63,161.46C84.84,172.88 86.25,185.2 85.63,196.71C84.57,207.38 68.24,206.97 67.39,197.2C66.41,185.82 68.43,172.86 67.37,161.5C66.63,153.59 56.35,152.77 54.51,160.33L54.46,196C53.1,207.05 37.88,207.5 35.97,196.48C36.57,184.45 35.21,171.72 35.97,159.78C36.77,147.19 47.15,137.41 59.68,136.96L59.68,136.98Z" fill="#fefdfd"/><path d="M226.63,136.97C236.27,136.76 245.92,136.97 255.56,136.93C265.47,138.71 264.81,154.01 255.12,154.9C243.93,155.92 231.07,153.88 219.85,154.9C214.76,155.36 215.21,161.16 218.7,161.79C227.14,162.35 236.18,161.23 244.55,161.85C268.86,163.65 271.12,202.13 244.55,205.24C232.17,205.03 218.7,206.33 206.4,205.49C193.48,204.61 195.43,187.87 205.44,187.01C217,186.01 229.96,187.78 241.67,187.01C245.79,187.18 246.63,181.1 242.61,180.56C234.35,180.13 225.64,181.06 217.43,180.55C198.38,179.36 191.21,154.63 205.32,142.3C211.94,136.52 218.4,137.16 226.62,136.98L226.63,136.97Z" fill="#fefdfd"/><path d="M154.43,60.01C163.47,59.5 172.84,60.22 181.92,59.97C186.09,60.51 190.25,63.27 190.71,67.72L190.71,120.47C190.12,124.81 186.8,127.9 182.43,128.27C168.5,127.11 152.14,131.27 139.44,124.47C108.62,107.96 119.3,61.97 154.42,60L154.43,60.01ZM172.71,78.64L152.92,78.64C150.98,78.64 147.03,80.52 145.49,81.76C136.72,88.79 138.12,102.5 147.84,107.93C148.8,108.47 151.95,109.81 152.92,109.81L172.71,109.81L172.71,78.64Z" fill="#fefdfe"/><path d="M231.48,108.37C231.13,108.27 231.08,108.47 230.88,108.6C230.12,109.12 228.62,110.83 227.88,111.6C223.96,115.66 220.36,120.09 216.38,124.08C213.2,127.27 210.88,129.02 206.05,127.92C197.24,125.9 196.9,115.61 203.06,110.29L218.04,94.32C218.07,94.12 217.2,93.05 216.98,92.79C212.32,87.3 206.8,82.43 202.1,76.97C193.86,67.39 203.77,55.29 214.3,62.38L231.17,80.06C231.5,80.12 233.64,77.84 234.02,77.44C238.44,72.88 242.76,67.19 247.32,62.92C255.5,55.24 267.73,65.02 262.16,74.63C256.52,81.41 250.16,87.59 244.23,94.13C248.53,99.49 253.64,104.21 258.25,109.32C260.21,111.49 262.58,113.56 263.29,116.51C264.95,123.32 258.8,129.85 251.88,128.15C248.88,127.41 246.99,125.23 244.93,123.11C240.48,118.54 236.25,113.71 231.85,109.08C231.66,108.88 231.52,108.64 231.5,108.36L231.48,108.37Z" fill="#fefdfd"/><path d="M131.88,136.97C136.95,136.33 141.82,140.34 142.26,145.41C142.99,153.91 141.61,163.48 142.24,172.04C143.64,191 172.02,191.42 173.44,173.24C174.12,164.53 172.73,154.84 173.44,146.14C174.42,134.17 190.84,134.27 192.16,145.89C191.27,157.86 194.2,171.9 189.93,183.24C181.37,205.97 151.61,212.89 134.1,195.77C119.78,181.77 124.58,164.44 123.78,146.37C123.9,142.05 127.55,137.52 131.89,136.98L131.88,136.97Z" fill="#fefdfd"/><path d="M323.31,136.98C332.97,136.19 343.46,137.4 353.2,136.93C364.58,139.04 363.64,154.51 352.04,155.38C343.54,156.02 334.12,154.69 325.64,155.36C307.72,156.78 306.59,185.07 325.4,186.55C334.17,187.24 344.03,185.77 352.75,186.55C355.29,186.78 357.5,188.1 359.1,190.03C364.18,196.17 359.52,204.7 352.04,205.26C344.56,205.82 333.8,205.64 326.35,205.26C306.8,204.25 292.29,188.27 293.13,168.68C293.8,152.91 307.5,138.28 323.32,136.99L323.31,136.98Z" fill="#fefdfd"/><path d="M300.51,60.48C305.22,59.84 309.53,62.55 310.77,67.12C311.36,85.18 311.36,103.5 310.77,121.56C308.12,131.07 294,130.2 292.88,120.24L292.91,67.99C293.49,64.16 296.67,61 300.5,60.47L300.51,60.48Z"/><path d="M278.68,137.45C283.49,137.35 286.9,141.44 287.58,145.92L287.62,196.97C286.72,207.99 271.01,208.28 269.4,197.41L269.36,146.12C269.55,141.38 274.06,137.55 278.67,137.45L278.68,137.45Z" fill="#fefefe"/><path d="M347.04,70.31C352.9,69.51 357.56,73.38 357.9,79.23C357.2,92.24 358.8,106.15 357.9,119.05C357,131.95 340.55,130.71 339.65,120.25L339.68,77.58C340.33,74.02 343.38,70.81 347.04,70.31Z"/><path d="M323.3,84.7C328.64,83.93 333.83,86.77 334.39,92.43C335.27,101.34 333.82,111.79 334.28,120.85C332.13,131.35 317,130.47 316.15,119.53C315.45,110.57 316.44,100.31 316.47,91.3C317.1,88.15 320.11,85.15 323.3,84.7Z" fill="#010000"/><path d="M277.97,104.6C287.11,103.96 289.01,113.82 287.58,120.93C285.52,131.2 270.52,130.09 269.61,120.25C269,113.64 269.54,105.2 277.97,104.6Z" fill="#010000"/></svg>