<svg viewBox="0 0 466 242" xmlns="http://www.w3.org/2000/svg">
  <path d="M365.09,0.72L371.62,1.99C386.26,6.1 396.34,19.71 396.53,34.88L396.53,207.05C396.31,222.21 386.31,235.86 371.62,239.94L365.09,241.21C254.31,241.27 143.52,241.16 32.73,241.22C15.47,240.21 1.67,226.37 0.48,209.2L0.48,33.2C1.41,15.8 15.17,1.94 32.51,0.72C143.37,0.76 254.24,0.66 365.1,0.72Z" fill="#c30067"/>
  <path d="M57.57,60.18L57.57,42.32C57.57,40.88 55.94,37.9 54.94,36.8C49.93,31.31 40.83,34.7 39.61,41.63L39.58,120.01C40.26,124.88 43.68,127.92 48.57,128.28C69.1,126.81 92.24,134.12 106.98,115.68C124.3,94.01 110.09,62.76 83.12,60.18L57.57,60.18Z" fill="white"/>
  <path d="M154.43,60.01C119.3,61.98 108.63,107.96 139.45,124.48C152.14,131.28 168.5,127.13 182.44,128.28C186.8,127.91 190.13,124.81 190.7,120.48L190.7,67.73C190.25,63.28 186.08,60.51 181.92,59.98C172.84,60.23 163.48,59.51 154.43,60.02Z" fill="white"/>
  <path d="M231.48,108.37C231.5,108.66 231.64,108.89 231.83,109.09C236.23,113.71 240.46,118.55 244.91,123.12C246.97,125.24 248.86,127.42 251.86,128.16C258.78,129.86 264.93,123.32 263.27,116.52C262.55,113.57 260.19,111.5 258.23,109.33C253.62,104.22 248.52,99.5 244.21,94.14C250.13,87.6 256.5,81.42 262.14,74.64C267.72,65.02 255.49,55.25 247.3,62.93C242.74,67.2 238.42,72.88 234,77.45C233.62,77.84 231.48,80.12 231.15,80.07L214.28,62.39C203.75,55.3 193.85,67.4 202.08,76.98C206.78,82.44 212.3,87.31 216.96,92.8C217.18,93.05 218.05,94.13 218.02,94.33L203.04,110.3C196.88,115.63 197.22,125.92 206.03,127.93C210.86,129.04 213.18,127.28 216.36,124.09C220.34,120.1 223.95,115.67 227.86,111.61C228.6,110.85 230.1,109.13 230.86,108.61C231.06,108.47 231.11,108.28 231.46,108.38Z" fill="white"/>
  <path d="M300.51,60.48C296.68,61 293.5,64.17 292.92,68L292.89,120.25C294.01,130.2 308.12,131.08 310.78,121.57C311.37,103.51 311.37,85.19 310.78,67.13C309.54,62.56 305.23,59.84 300.52,60.49Z" fill="white"/>
  <path d="M347.04,70.31C343.38,70.81 340.33,74.02 339.68,77.58L339.65,120.25C340.55,130.71 357.03,131.51 357.9,119.05C358.77,106.59 357.2,92.24 357.9,79.23C357.56,73.38 352.9,69.51 347.04,70.31Z" fill="white"/>
  <text x="130" y="160" font-family="sans-serif" font-weight="800" font-size="52" fill="white">bax</text>
  <text x="210" y="160" font-family="sans-serif" font-weight="400" font-size="38" fill="white" letter-spacing="2">MUSIC</text>
</svg>
