<svg xmlns="http://www.w3.org/2000/svg" width="87" height="32" viewBox="0 0 87 32" fill="none">
    <path fill-rule="evenodd" clip-rule="evenodd" d="M58.2845 17.0202C56.7355 16.5728 55.3796 18.4098 54.9828 20.0446C54.6227 21.5354 54.8127 23.541 56.1625 23.7984C57.2442 24.0037 58.4991 23.0599 58.8208 21.3087C58.877 21.0025 58.9819 20.2546 59.0643 19.6665L59.0643 19.6663L59.0644 19.6661C59.1078 19.3566 59.1449 19.0915 59.1655 18.9583C59.5378 16.582 59.8152 15.5401 59.8152 15.5401C61.1098 10.579 64.2109 0.931052 65.0567 0.367221C65.933 -0.218061 68.3462 -0.316118 67.5908 1.69866C67.1582 2.85111 66.6996 3.95537 66.231 5.08349C65.427 7.01946 64.5938 9.02565 63.8125 11.4661C63.6254 12.0509 63.4156 12.6814 63.1976 13.3367L63.1975 13.3369C61.7271 17.7566 59.8811 23.3052 62.0613 23.5854C62.6193 23.657 63.0189 23.449 63.3603 23.2713C63.7351 23.0762 64.0398 22.9176 64.407 23.2055C65.481 24.0466 64.3074 25.5634 62.239 25.7657C60.7343 25.8207 60.0425 25.3806 59.5378 25.0594C59.0876 24.7729 58.7862 24.5812 58.1895 24.9199C54.1431 27.2182 51.6488 24.0037 52.444 19.9741C53.1258 16.5207 55.7856 14.083 58.7564 15.5784C58.7564 15.5784 59.5179 15.9569 59.4536 16.5988C59.4045 17.0952 59.0307 17.1948 58.2845 17.0202ZM23.9904 14.6116C23.3822 14.7541 22.9179 14.9334 22.7034 15.7194C22.3051 17.0462 21.3613 19.9879 19.9134 23.5502C17.9216 28.4531 16.6254 31.2339 16.6254 31.2339C16.6254 31.2339 16.1657 31.9234 15.1698 32C14.0881 31.9847 13.2654 31.8774 13.2301 31.1267C13.3896 30.5595 14.0844 29.1585 14.9146 27.4848L14.9146 27.4848L14.9146 27.4847L14.9146 27.4847C15.7597 25.781 16.7448 23.7947 17.4481 22.1176C18.5498 19.6861 19.1289 18.0069 19.4507 16.9696C19.6284 16.5054 19.2714 16.2909 18.9496 16.5406C18.7718 16.6141 18.4712 16.75 18.1443 16.8977C17.6739 17.1102 17.1493 17.3472 16.8583 17.4584C16.7882 17.4851 16.7144 17.5159 16.6386 17.5476L16.6386 17.5477C16.0226 17.8053 15.2714 18.1195 15.3001 16.7199C15.361 15.5306 15.82 15.4158 16.3338 15.2873C16.4535 15.2574 16.5761 15.2267 16.6974 15.1816C17.5186 14.8752 20.2719 13.6448 20.2719 13.6448C20.2719 13.6448 22.0645 8.39875 22.2744 6.06682C22.6314 3.35032 21.8301 2.56739 19.1641 3.24307C16.0106 3.98076 12.4751 6.6093 9.78006 8.61301C9.60361 8.74419 9.43076 8.8727 9.26186 8.99782C8.14274 9.82651 6.6874 11.184 5.39699 12.3876C4.46141 13.2603 3.61252 14.0521 3.04133 14.5028C3.04133 14.5028 2.11131 15.5753 0.681815 14.1459C-0.63884 12.7384 0.0879937 12.1487 1.75533 10.796L1.75534 10.796L1.75546 10.7959C2.11916 10.5008 2.52761 10.1694 2.96932 9.78535C10.3727 3.9402 20.7254 -0.924381 23.5599 1.41981C24.6799 2.36208 25.5057 4.01527 24.0961 10.2144C23.8358 11.3573 23.7551 11.7016 23.7346 11.7835C23.7176 11.9285 23.6895 12.4973 24.3474 12.2153C25.21 11.9779 29.5108 10.6326 29.5108 10.6326C29.5108 10.6326 29.9229 11.0877 29.7452 12.0376C29.5306 13.1896 29.0934 13.2876 27.7773 13.5829L27.7773 13.5829C27.5337 13.6376 27.26 13.699 26.9521 13.7751C26.1722 13.916 24.899 14.3129 23.9904 14.6116ZM68.6135 16.9136L68.6136 16.9136C69.2489 16.9597 70.1744 17.027 71.4993 17.0769C73.9707 17.1688 74.461 15.2567 74.3629 14.0708L74.1953 14.1069C71.8133 14.6209 71.196 14.7541 69.0694 14.7541C66.7864 14.7541 63.9734 15.3915 63.9229 17.4001C63.8776 19.1866 65.9655 19.732 67.3761 20.1005C67.5406 20.1435 67.6959 20.184 67.8375 20.2239C68.2129 20.3128 68.3554 20.6177 68.1056 20.8138C67.9817 20.9128 67.8243 21.0186 67.652 21.1345C67.0192 21.5601 66.1849 22.1213 66.0633 22.9787C65.8426 24.5246 67.2476 25.735 69.0295 25.6983C71.4028 25.6492 74.0243 24.6411 76.5432 21.6181C76.9566 21.1219 77.4001 20.4266 77.7956 19.8066C78.0802 19.3604 78.3399 18.9532 78.5457 18.6871C78.6637 18.4589 79.0038 18.3485 79.1524 18.3654C79.6029 18.465 80.2403 18.8051 80.1545 19.2954C80.1195 19.4936 79.951 19.8028 79.7473 20.1766C79.1824 21.2131 78.3473 22.7454 79.3439 23.7769C80.1759 24.6395 82.2734 25.2647 83.9435 24.0497C85.5063 22.9128 84.9562 21.8725 84.3372 21.7974C84.2022 21.7811 83.9933 21.9143 83.7397 22.076C83.1615 22.4446 82.3514 22.9611 81.656 22.1912C81.0178 21.486 82.0321 20.2011 82.7163 19.3345L82.7164 19.3343L82.7166 19.3341C82.9242 19.0711 83.1014 18.8467 83.1927 18.6887C83.5419 18.0856 82.8371 17.5744 82.027 16.9867C81.5219 16.6204 80.9759 16.2243 80.6187 15.7577C80.3955 15.4604 80.4703 14.9345 80.5523 14.3577C80.691 13.3826 80.8504 12.2619 79.6259 11.8538C78.99 11.6423 77.0227 12.8251 77.7229 16.2219C76.8282 19.5819 70.0208 25.4608 69.1138 23.0905C68.8931 22.5129 69.4769 21.5507 71.0366 21.2259C73.6106 20.6897 73.4084 19.0978 72.1811 18.9384C71.7969 18.8887 71.4679 18.8489 71.1692 18.8127L71.1689 18.8127C69.9672 18.6673 69.2565 18.5813 67.4146 18.1494C66.503 18.0513 66.5336 16.8455 67.6031 16.8624C67.7974 16.8543 68.1168 16.8775 68.6135 16.9136ZM30.3534 20.5625C29.7345 21.1907 29.0189 22.0594 28.9239 22.7611C28.7171 24.281 29.4954 25.6186 31.4259 25.5849C32.7107 25.563 33.4605 24.978 34.6704 24.034C35.4127 23.4548 36.3281 22.7406 37.6465 21.9384C38.0021 21.7223 38.3893 21.4511 38.7614 21.1904L38.7615 21.1904C39.4027 20.7412 39.9993 20.3233 40.3124 20.2729C40.5024 20.2729 40.7813 20.3311 40.7629 20.6973C40.7184 20.9077 40.6732 21.1075 40.6299 21.2993L40.6298 21.2994C40.3881 22.3691 40.2028 23.189 40.5055 24.1906C40.7567 25.0211 41.8584 25.5405 42.6505 24.9414C43.4992 24.2992 43.8107 23.8344 44.3784 22.9874L44.3784 22.9874L44.3785 22.9873C44.6952 22.5147 45.0916 21.9232 45.7056 21.1156C45.7539 21.0518 45.8244 20.9491 45.9103 20.8237L45.9107 20.8232L45.9111 20.8226L45.9112 20.8225C46.3293 20.2127 47.1132 19.0692 47.512 19.2571C47.899 19.4395 47.8081 19.965 47.7338 20.3944L47.7265 20.4369C47.7012 20.585 47.6732 20.7392 47.6444 20.8977L47.6439 20.9007L47.6439 20.9007L47.6439 20.9007C47.2624 23.0003 46.7449 25.8488 50.6223 25.3704C51.6151 25.2478 52.4133 24.5783 51.6595 23.8689C51.3763 23.6019 51.0717 23.6215 50.7442 23.6427C50.5456 23.6555 50.3386 23.6689 50.1228 23.6191C49.5005 23.4753 49.8827 22.081 50.3116 20.5158C50.8058 18.7126 51.3622 16.6825 50.5165 16.0764C48.3283 14.5084 46.2962 17.2213 44.7598 19.2724L44.6898 19.3659C44.08 20.1779 43.6295 19.8225 43.2327 18.678C42.793 17.4063 40.15 18.3363 38.6332 19.1192C37.8988 19.4982 36.9756 20.1471 36.0341 20.8087C33.8741 22.3267 31.6181 23.9121 31.3279 22.4608C31.2559 22.1008 31.8396 21.2995 32.9275 20.9042C33.0725 20.8513 33.2198 20.7992 33.3668 20.7471C34.5117 20.3415 35.644 19.9404 35.644 19.2602C35.644 18.6672 35.2839 18.2505 34.9024 18.2719C34.4955 18.2947 34.0737 18.3367 33.6367 18.3803C32.1616 18.5273 30.5138 18.6915 28.6865 18.1892C28.1472 18.1861 27.9173 16.8271 29.5154 17.0048C29.9382 17.0523 30.882 17.1152 34.4642 17.1872C36.9877 17.2377 37.0428 15.3486 36.7042 14.3466C34.8116 14.9106 33.7573 14.9071 31.9385 14.901L31.938 14.901C31.7412 14.9003 31.5354 14.8997 31.3187 14.8997C28.9883 14.8997 25.8489 15.2214 25.9838 17.466C26.0971 19.3552 28.7478 19.873 30.1221 20.0293C30.5143 19.991 30.6384 20.3664 30.3534 20.5625ZM84.8823 13.8902H84.7536V13.1897H84.87C85.0692 13.1897 85.3602 13.2019 85.3602 13.5461C85.3602 13.8606 85.0732 13.8902 84.8823 13.8902ZM84.7536 14.17L85.4644 15.0911H85.8616L85.11 14.1404C85.4419 14.1057 85.6747 13.8667 85.6747 13.5338C85.6747 12.916 85.0099 12.9109 84.8353 12.9109H84.4381V15.0911H84.7536V14.17ZM83.327 14.0005C83.327 13.0447 84.0439 12.3268 84.9997 12.3268C85.9566 12.3268 86.6735 13.0447 86.6735 14.0005C86.6735 14.9563 85.9566 15.6742 84.9997 15.6742C84.0439 15.6742 83.327 14.9563 83.327 14.0005ZM86.9992 14.0005C86.9992 12.8578 86.1424 12 84.9997 12C83.857 12 82.9992 12.8578 82.9992 14.0005C82.9992 15.1432 83.857 16 84.9997 16C86.1424 16 86.9992 15.1432 86.9992 14.0005Z" fill="#DA352A"></path>
</svg>
